<?xml version="1.0" encoding="UTF-8"?>
<svg version="1.1" xmlns="http://www.w3.org/2000/svg" width="626" height="459">
<path d="M0 0 C206.58 0 413.16 0 626 0 C626 151.47 626 302.94 626 459 C419.42 459 212.84 459 0 459 C0 307.53 0 156.06 0 0 Z " fill="#000000" transform="translate(0,0)"/>
<path d="M0 0 C147.84 0 295.68 0 448 0 C448 116.49 448 232.98 448 353 C443.545 350.03 443.545 350.03 439 347 C436.27057381 346.09019127 434.64113682 345.87799273 431.83203125 345.859375 C431.02056641 345.84003906 430.20910156 345.82070313 429.37304688 345.80078125 C427.6857802 345.76731906 425.99814328 345.74872856 424.31054688 345.74609375 C418.74985046 345.57957959 415.29190301 344.47126022 410.76513672 341.20776367 C408.78772791 339.75697968 408.78772791 339.75697968 405.3125 338.5625 C401.99959697 336.99980989 400.49799249 335.52148329 398.328125 332.62109375 C396.32177833 330.17217061 393.90729258 328.28154965 391.453125 326.296875 C390 325 390 325 389 323 C387.33720673 321.9935725 385.67016516 320.99414593 384 320 C382.1875 318.4375 382.1875 318.4375 381 317 C381 316.34 381 315.68 381 315 C380.13375 314.5978125 380.13375 314.5978125 379.25 314.1875 C373.33509662 311.06574544 373.33509662 311.06574544 372.2421875 307.58984375 C372.12101562 306.71457031 371.99984375 305.83929688 371.875 304.9375 C371.41041603 301.01492071 371.41041603 301.01492071 369 298 C367.824375 297.690625 367.824375 297.690625 366.625 297.375 C363.58719285 295.78376768 363.41387518 295.10135657 362.125 292.0625 C360.56903342 288.57412331 360.26253046 288.13126523 356.625 286.3125 C355.42875 285.879375 354.2325 285.44625 353 285 C351.390625 283.7890625 351.390625 283.7890625 349.875 282.4375 C345.93898414 279.10044308 343.04607565 278.05238656 338 277.75 C334.31566593 277.37602624 334.04767305 277.04984001 331.25 274.125 C330.5075 273.09375 329.765 272.0625 329 271 C327.88625 270.2884375 327.88625 270.2884375 326.75 269.5625 C325 268 325 268 324.5625 264.625 C323.87241961 260.17781529 322.27387363 258.93809172 319 256 C319 255.34 319 254.68 319 254 C318.401875 253.731875 317.80375 253.46375 317.1875 253.1875 C314.83326184 251.909485 313.58602862 251.1627663 312 249 C311.52933501 247.05458469 311.05923345 245.10585128 310.72265625 243.1328125 C309.1752514 238.56587711 306.77115145 236.38256677 302.49609375 234.26171875 C301.14709839 233.72711073 299.79400303 233.20276084 298.4375 232.6875 C291.03851634 229.68909773 285.29053385 225.94084076 279 221 C276.67404054 219.83702027 275.21276769 219.83399309 272.625 219.8125 C271.85414063 219.79832031 271.08328125 219.78414062 270.2890625 219.76953125 C267.78165112 220.02198393 266.16738098 220.74806533 264 222 C263.01 221.34 262.02 220.68 261 220 C257.44603295 219.63549056 254.92507048 219.88184551 252 222 C250.76709799 224.45704762 250.76709799 224.45704762 250 227 C249.67 227.66 249.34 228.32 249 229 C249.02320313 229.62132812 249.04640625 230.24265625 249.0703125 230.8828125 C249.13620387 233.5843588 248.93977251 235.44918889 248 238 C245.42065407 240.42636989 242.74598315 242.27525506 239.76171875 244.17578125 C237.14444393 245.90458937 235.12830786 247.70992053 233 250 C232.01 249.67 231.02 249.34 230 249 C229.33333333 247.33333333 228.66666667 245.66666667 228 244 C227.175 243.01 226.35 242.02 225.5 241 C223 238 223 238 222.21484375 235.51171875 C220.53336422 232.03521928 218.53600873 231.38294698 215.0625 229.8125 C211.84763931 228.33202345 208.94925774 226.96617183 206 225 C203.72176606 225.16980626 201.44980956 225.43197565 199.1875 225.75 C192.72155513 226.26274743 192.72155513 226.26274743 189.88671875 225.23046875 C185.23947029 221.25569035 184.50047163 215.06585341 183.0390625 209.3984375 C180.9225838 202.47611994 176.43129065 198.39976158 171.3125 193.5 C166.95124397 189.24463182 163.44426364 184.70978998 160 179.6875 C159.53118408 179.00558594 159.06236816 178.32367188 158.5793457 177.62109375 C156.26965552 174.1733138 154.41454622 170.92683923 153 167 C151.01429306 165.01429306 147.69306669 165.17197742 145 165 C143.52654566 165.09036287 142.0548027 165.21217395 140.5859375 165.359375 C120.88861129 167.03635625 102.91561784 159.44467492 85 152 C84 151 84 151 83.8125 147.9375 C83.9559167 144.92574935 84.22352471 142.82504839 85 140 C86.01026355 136.21517206 86.44600044 132.93967054 86 129 C84.24191401 126.32321702 84.24191401 126.32321702 82 124 C81.566875 123.113125 81.13375 122.22625 80.6875 121.3125 C78.27178621 118.0020774 75.94261961 117.80188873 72 117 C70.4840625 116.5359375 70.4840625 116.5359375 68.9375 116.0625 C65.75345725 115.71267728 65.75345725 115.71267728 62.75 118.1875 C59.28980722 121.72633353 58.10212638 123.26385152 57.8125 128.1875 C57.68348662 130.90298816 57.68348662 130.90298816 59 132 C59.25 134.4375 59.25 134.4375 59 137 C55.15691236 139.56205842 53.5659696 139.67366765 49 139 C42.39358434 134.94494263 38.30124657 129.35285521 36.484375 121.87890625 C35.76926337 115.19261251 39.22744827 111.62840352 43.203125 106.57421875 C45.26967494 103.9823592 45.26967494 103.9823592 45.75 100.1875 C44.85935821 96.40227239 43.40419676 93.96053981 41 91 C40.33613281 90.16597656 39.67226562 89.33195312 38.98828125 88.47265625 C37.57037117 86.69835944 36.1436784 84.93103478 34.70703125 83.171875 C30.8528727 78.26818587 31.2602006 72.63023903 31.65234375 66.63623047 C32.52581561 60.01281116 34.59815456 53.57504755 36.50976562 47.18945312 C39.42799933 37.50822608 39.42799933 37.50822608 38.25 27.625 C37.10586692 25.86590838 37.10586692 25.86590838 35.125 25.1875 C31.35205761 23.07909102 29.71204955 18.76717753 28.140625 14.8671875 C27.69976562 13.81917969 27.69976562 13.81917969 27.25 12.75 C27.00765625 12.10546875 26.7653125 11.4609375 26.515625 10.796875 C24.04018961 7.86208046 20.55646613 7.10613292 17 6 C16.25911133 5.76845215 15.51822266 5.5369043 14.75488281 5.29833984 C12.50869876 4.61592403 10.25655174 3.95974318 8 3.3125 C7.22527344 3.08755859 6.45054687 2.86261719 5.65234375 2.63085938 C3.76903154 2.08446633 1.88462976 1.54183106 0 1 C0 0.67 0 0.34 0 0 Z " fill="#FEFEFE" transform="translate(178,0)"/>
<path d="M0 0 C0.66 1.32 1.32 2.64 2 4 C3.76260052 6.85251596 3.76260052 6.85251596 7 9 C9.0319494 9.31950653 11.07683285 9.56048987 13.125 9.75 C20.01356303 10.53013171 23.5203187 13.19863419 28.46484375 17.90625 C32.66687752 21.37665077 37.04559704 22.19288625 42.375 22.625 C43.24898437 22.69976562 44.12296875 22.77453125 45.0234375 22.8515625 C46.00183594 22.92503906 46.00183594 22.92503906 47 23 C47.350625 23.969375 47.70125 24.93875 48.0625 25.9375 C50.58948712 31.86201525 54.63674968 37.42449978 60 41 C61.9118032 41.59138812 61.9118032 41.59138812 63.9375 42 C66.14631002 42.47666035 67.87945751 42.93348781 69.86499023 44.02905273 C72.21908567 45.0996345 73.63243966 45.19082524 76.1953125 45.09765625 C91.09054469 44.95103178 91.09054469 44.95103178 96.875 50.4375 C97.57367188 51.24058594 98.27234375 52.04367187 98.9921875 52.87109375 C101.78820742 55.83574522 104.49621097 56.84878261 108.53955078 57.25537109 C109.85415283 57.26431396 109.85415283 57.26431396 111.1953125 57.2734375 C112.15824219 57.2940625 113.12117188 57.3146875 114.11328125 57.3359375 C116.12881915 57.36207937 118.14447553 57.38024827 120.16015625 57.390625 C121.60068359 57.42542969 121.60068359 57.42542969 123.0703125 57.4609375 C123.94445801 57.46915527 124.81860352 57.47737305 125.71923828 57.48583984 C128 58 128 58 129.75097656 59.91577148 C130.88931545 61.81530219 131.81293038 63.63055443 132.625 65.6875 C133.66768499 68.79501465 133.66768499 68.79501465 135 70 C135.13255476 71.89406018 135.23083609 73.79056412 135.3125 75.6875 C135.7406535 81.58338427 136.79426884 84.79426884 141 89 C143.01964199 89.07244053 145.04167124 89.08377188 147.0625 89.0625 C148.71958984 89.04896484 148.71958984 89.04896484 150.41015625 89.03515625 C151.26480469 89.02355469 152.11945313 89.01195312 153 89 C153.33 89.99 153.66 90.98 154 92 C155.27875 91.979375 156.5575 91.95875 157.875 91.9375 C161.75 91.875 161.75 91.875 164 93 C163.96519531 93.64324219 163.93039063 94.28648437 163.89453125 94.94921875 C163.67079807 102.41764536 163.84940833 110.10870583 167 117 C169.81439364 119.01028117 172.65195516 119.35922587 176 120 C177.45480711 120.65007597 178.89301441 121.33853649 180.3125 122.0625 C183.9595287 123.76743785 187.26224912 124.42011739 191.25 124.9375 C195.26741504 125.52166494 196.85677815 125.89809215 200.25 128.3125 C202.19912551 131.30579989 202.44664686 132.51615446 202 136 C201.85523388 146.86675066 201.85523388 146.86675066 205 157 C208.42168849 158.66881935 208.42168849 158.66881935 212 160 C212.44214844 160.66128906 212.88429687 161.32257813 213.33984375 162.00390625 C216.24865013 165.50131815 220.30472572 165.20686557 224.61328125 165.76171875 C228.93580179 166.06584073 232.73508412 165.7228671 237 165 C237.33 165.99 237.66 166.98 238 168 C238.680625 167.835 239.36125 167.67 240.0625 167.5 C248.46725318 166.06940371 248.46725318 166.06940371 251.75 168.0625 C253.56653965 170.87813645 254.7385689 173.90376003 256 177 C257.16593462 178.3741663 257.16593462 178.3741663 260.375 178.375 C264 179 264 179 265.4296875 180.51953125 C267.5525642 182.52094983 268.87694993 182.29911623 271.75 182.3125 C278.74157859 182.81117154 281.87336212 186.58597862 286.3125 191.625 C294.20126657 198.59646813 307.63260622 201.50191702 317.96875 201.18359375 C319.93019365 201.00630942 321.87432163 200.66200757 323.8125 200.3125 C327 200 327 200 329.3125 201.125 C331 203 331 203 331.875 205.5625 C332.24625 206.366875 332.6175 207.17125 333 208 C334.99117408 208.69258229 336.9921136 209.35747635 339 210 C339.598125 210.825 340.19625 211.65 340.8125 212.5 C344.00813254 216.15215147 347.37122873 216.55946011 352 217 C354.79215135 217.15182411 357.57901608 217.22080978 360.375 217.25 C361.0772168 217.25942627 361.77943359 217.26885254 362.50292969 217.27856445 C366.21490648 217.25479273 367.83335203 217.11109865 371 215 C373.94926345 214.91807602 375.51237001 215.56269879 377.703125 217.52734375 C378.91396027 218.77239828 380.11960111 220.02252305 381.3203125 221.27734375 C384.73960212 224.78410357 387.39153675 226.16119838 392.25 226.3125 C400.48409004 225.9831364 405.15635742 225.00157887 411 219 C414.18225585 218.29283203 416.02084809 218.4170727 418.84375 220.09765625 C419.4934375 220.53980469 420.143125 220.98195313 420.8125 221.4375 C425.07456221 224.29243098 428.85745098 225.36267525 434 225 C436.35981813 224.06421005 438.69631264 223.06652192 441 222 C445.37597394 221.48246678 447.3562814 221.56975951 451.0625 224.046875 C452.031875 224.93890625 453.00125 225.8309375 454 226.75 C458.12105191 230.43310941 462.04380615 233.52190308 467 236 C467 236.33 467 236.66 467 237 C312.89 237 158.78 237 0 237 C0 158.79 0 80.58 0 0 Z " fill="#FEFEFE" transform="translate(0,222)"/>
<path d="M0 0 C57.75 0 115.5 0 175 0 C170 5 170 5 168.15625 6.73828125 C161.60831501 12.96190814 157.29012725 19.54936374 155.5 28.5 C156.09179141 31.45895707 156.87932534 32.01437479 159.0625 34 C161.9633845 36.71439906 161.9633845 36.71439906 162.3125 39.4375 C160.27902647 43.40761498 157.31941746 46.07476337 154 49 C152.6696875 50.2375 152.6696875 50.2375 151.3125 51.5 C146.21040623 53.81038208 141.43081813 52.80847131 136 52 C132.64074976 56.75893784 130.61589149 60.86977516 129.0625 66.5 C126.70452054 74.60321514 123.33604026 79.39852145 116.5625 84.375 C109.85401166 89.36710253 106.10862783 95.91746852 102.17529297 103.1862793 C98.75543731 109.4655941 95.02689209 114.22352737 89.7734375 119.11328125 C86.16814124 122.67014034 83.35054142 126.81234606 80.4375 130.9375 C75.53681883 137.87402389 70.54306148 144.55554348 65 151 C64.32066406 151.80179688 63.64132813 152.60359375 62.94140625 153.4296875 C60.68843743 156.01750122 58.36437004 158.51345886 56 161 C55.48276367 161.56138672 54.96552734 162.12277344 54.43261719 162.70117188 C44.4722683 173.39229159 44.4722683 173.39229159 38.50390625 174.859375 C34.68145301 174.87773012 31.44556687 174.72278344 28 173 C22.39296787 172.78622279 22.39296787 172.78622279 17 174 C16.28457992 175.64632814 15.62585034 177.31758103 15 179 C13.88493877 180.74916833 12.73693183 182.47762829 11.5625 184.1875 C8.64291666 188.66379063 6.85871833 192.72503025 5.60546875 197.90625 C5 200 5 200 3 203 C2.56261304 204.71444889 2.19151312 206.44667784 1.875 208.1875 C1.62363281 209.53908203 1.62363281 209.53908203 1.3671875 210.91796875 C1.18542969 211.94857422 1.18542969 211.94857422 1 213 C0.67 213 0.34 213 0 213 C0 142.71 0 72.42 0 0 Z " fill="#FEFEFE" transform="translate(0,0)"/>
<path d="M0 0 C0.33 0 0.66 0 1 0 C1 33.99 1 67.98 1 103 C-50.15 103 -101.3 103 -154 103 C-144.95206391 90.93608522 -144.95206391 90.93608522 -141 88 C-138.4375 87.75 -138.4375 87.75 -136 89 C-134.63875 90.2684375 -134.63875 90.2684375 -133.25 91.5625 C-130.66771594 93.86453618 -128.89460082 94.40253613 -125.4375 94.5 C-121.59135366 94.27337522 -119.03929848 93.48669875 -116 91 C-113.59419064 87.39128596 -113.86554475 85.77377451 -113.875 81.5 C-113.4031783 73.3273741 -110.30397233 68.99538301 -105 63 C-104.38125 62.23558594 -103.7625 61.47117187 -103.125 60.68359375 C-99.7970306 56.64991655 -96.55189223 53.67176283 -92 51 C-91.22897949 50.47857422 -90.45795898 49.95714844 -89.66357422 49.41992188 C-86.67876916 47.8287554 -84.86468872 47.61921157 -81.5078125 47.59375 C-80.47269531 47.57183594 -79.43757812 47.54992187 -78.37109375 47.52734375 C-76.76427734 47.51380859 -76.76427734 47.51380859 -75.125 47.5 C-65.15387448 47.48871681 -65.15387448 47.48871681 -56 44 C-53.51142622 40.95840982 -52.11592223 38.32946317 -50.8125 34.625 C-46.69850471 24.84618398 -36.12091294 20.86519447 -27.04980469 16.90625 C-12.91089497 10.66704287 -12.91089497 10.66704287 -1 1 C-0.67 0.67 -0.34 0.34 0 0 Z " fill="#FDFDFD" transform="translate(625,356)"/>
<path d="M0 0 C9.43249319 -0.49451906 13.48722863 1.48972485 20.44921875 7.6953125 C21.98306872 9.08886818 21.98306872 9.08886818 24 10 C24 10.66 24 11.32 24 12 C25.03640625 11.95359375 26.0728125 11.9071875 27.140625 11.859375 C28.51038779 11.82184725 29.88018182 11.78544816 31.25 11.75 C32.27287109 11.69972656 32.27287109 11.69972656 33.31640625 11.6484375 C36.77374165 11.58130477 38.64757335 11.74125639 41.46875 13.8125 C43.46591068 16.66558669 43.30966724 18.59366036 43 22 C42.01 21.67 41.02 21.34 40 21 C39.67 19.35 39.34 17.7 39 16 C38.0821875 15.92523438 37.164375 15.85046875 36.21875 15.7734375 C28.04322172 14.89748804 22.99668803 13.60764116 17 8 C13.13705945 4.4271096 10.40086436 3.38192295 5.1875 2.75 C3.44533203 2.52570313 3.44533203 2.52570313 1.66796875 2.296875 C0.78753906 2.19890625 -0.09289062 2.1009375 -1 2 C-0.67 1.34 -0.34 0.68 0 0 Z " fill="#181818" transform="translate(8,230)"/>
<path d="M0 0 C0.33 0 0.66 0 1 0 C1.73683922 4.1447206 1.65007315 6.05197665 -0.78125 9.59765625 C-1.5134375 10.51417969 -2.245625 11.43070313 -3 12.375 C-6.25913481 16.61245414 -8.14216215 19.39778103 -7.58984375 24.8046875 C-5.67990507 31.913201 -1.888948 36.75447935 4 41 C3.34 41.66 2.68 42.32 2 43 C-3.91889552 38.53209586 -8.13341662 34.33555377 -10 27 C-10.45886797 22.41797054 -10.46125606 18.38376817 -9 14 C-8.236875 13.484375 -7.47375 12.96875 -6.6875 12.4375 C-2.85113017 8.95800178 -1.64790081 4.82402248 0 0 Z " fill="#111111" transform="translate(223,97)"/>
<path d="M0 0 C0.07992187 0.62777344 0.15984375 1.25554687 0.2421875 1.90234375 C0.78586975 4.15047673 0.78586975 4.15047673 2.8203125 4.94140625 C3.96113281 5.24884766 3.96113281 5.24884766 5.125 5.5625 C7.99513012 6.39344534 10.46692412 7.219729 13.1875 8.5 C18.77354397 11.01371979 25.02443311 11.83140786 31 13 C31.33 14.32 31.66 15.64 32 17 C21.0262242 14.30468665 10.05835115 11.28614075 0 6 C0 4.02 0 2.04 0 0 Z " fill="#1B1B1B" transform="translate(167,333)"/>
<path d="M0 0 C1.98828125 1.203125 1.98828125 1.203125 4 3 C4.35546875 5.234375 4.35546875 5.234375 4.1875 7.75 C4.00865283 11.97449346 4.31650367 15.81358499 5 20 C5 20.99 5 21.98 5 23 C5.32198966 26.09926819 5.32198966 26.09926819 6 29 C6.66 29.33 7.32 29.66 8 30 C7.01 30.33 6.02 30.66 5 31 C1.36296907 23.88406992 1 16.90753134 1 9 C0.85302021 7.41471795 0.68602074 5.8311763 0.5 4.25 C0.4071875 3.45078125 0.314375 2.6515625 0.21875 1.828125 C0.1465625 1.22484375 0.074375 0.6215625 0 0 Z " fill="#131313" transform="translate(200,349)"/>
<path d="M0 0 C0.99 0 1.98 0 3 0 C4.27123687 1.49940759 5.53797748 3.00397109 6.74609375 4.5546875 C7.9589859 6.13888459 7.9589859 6.13888459 10 7 C12.56449159 8.2822458 13.94875939 10.19403194 15.703125 12.4140625 C17.15955376 14.24893168 17.15955376 14.24893168 19.6875 16.6875 C22 19 22 19 24 22 C21 22 21 22 19.640625 20.6796875 C19.18171875 20.08414062 18.7228125 19.48859375 18.25 18.875 C15.63481718 15.65631345 12.85205931 13.04911546 9.66796875 10.40625 C5.98116732 7.29793966 2.77384597 3.94178112 0 0 Z " fill="#151515" transform="translate(556,315)"/>
<path d="M0 0 C0.598125 0.639375 1.19625 1.27875 1.8125 1.9375 C3.90810337 4.20310389 3.90810337 4.20310389 7 5 C7 5.66 7 6.32 7 7 C14.26 7 21.52 7 29 7 C28.67 7.66 28.34 8.32 28 9 C9.56496581 9.40715413 9.56496581 9.40715413 3 7 C1.13510514 5.07890283 0.2163032 3.43260639 -1 1 C-0.67 0.67 -0.34 0.34 0 0 Z " fill="#303030" transform="translate(340,431)"/>
<path d="M0 0 C3.29237055 0.10959718 6.58356887 0.24028931 9.875 0.375 C10.81214844 0.4059375 11.74929687 0.436875 12.71484375 0.46875 C13.61074219 0.50742187 14.50664063 0.54609375 15.4296875 0.5859375 C16.67081299 0.63306885 16.67081299 0.63306885 17.93701172 0.68115234 C20 1 20 1 22 3 C18.30054001 4.23315333 14.85232442 4.18407267 11 4.1875 C10.27554688 4.19974609 9.55109375 4.21199219 8.8046875 4.22460938 C4.99299702 4.23515833 3.2463696 4.1642464 0 2 C0 1.34 0 0.68 0 0 Z " fill="#292929" transform="translate(69,264)"/>
<path d="M0 0 C0.66 0.33 1.32 0.66 2 1 C1.67 4.63 1.34 8.26 1 12 C2.32 12.66 3.64 13.32 5 14 C7.25 17.125 7.25 17.125 9 20 C7.35 21.32 5.7 22.64 4 24 C4.185625 22.453125 4.185625 22.453125 4.375 20.875 C3.96886468 16.67826835 3.89348514 16.54061226 0.9375 14.0625 C-1.9436769 11.54654271 -1.9436769 11.54654271 -2.2109375 8.953125 C-1.81436526 5.84853092 -0.98780726 2.96342178 0 0 Z " fill="#111111" transform="translate(157,20)"/>
<path d="M0 0 C9.57 0 19.14 0 29 0 C25.07510696 1.96244652 23.37861414 2.28432814 19.140625 2.4140625 C18.02558594 2.45273437 16.91054688 2.49140625 15.76171875 2.53125 C14.60285156 2.5621875 13.44398438 2.593125 12.25 2.625 C10.48849609 2.68300781 10.48849609 2.68300781 8.69140625 2.7421875 C5.79442732 2.8363982 2.89745374 2.92201602 0 3 C0 2.01 0 1.02 0 0 Z " fill="#151515" transform="translate(537,402)"/>
<path d="M0 0 C0.66 0 1.32 0 2 0 C2 0.66 2 1.32 2 2 C2.66 2 3.32 2 4 2 C5.35432675 3.31200404 6.68733482 4.64631404 8 6 C8.66 6.33 9.32 6.66 10 7 C10 7.66 10 8.32 10 9 C10.75925781 9.06058594 11.51851563 9.12117188 12.30078125 9.18359375 C13.29464844 9.26738281 14.28851563 9.35117187 15.3125 9.4375 C16.29863281 9.51871094 17.28476562 9.59992188 18.30078125 9.68359375 C21 10 21 10 24 11 C23.34 11 22.68 11 22 11 C22 11.66 22 12.32 22 13 C16.79171515 13.65103561 13.08023291 13.54830046 8.75 10.375 C5.39305104 7.54844897 2.61747569 4.51723295 0 1 C0 0.67 0 0.34 0 0 Z " fill="#141414" transform="translate(375,436)"/>
<path d="M0 0 C2.34023315 0.28082798 4.67305036 0.62468554 7 1 C8.299375 1.185625 9.59875 1.37125 10.9375 1.5625 C11.948125 1.706875 12.95875 1.85125 14 2 C11.65887549 3.44977894 10.4203071 4.04314411 7.640625 3.7578125 C6.85171875 3.54898438 6.0628125 3.34015625 5.25 3.125 C4.45078125 2.92132813 3.6515625 2.71765625 2.828125 2.5078125 C2.22484375 2.34023438 1.6215625 2.17265625 1 2 C0.70351562 2.59296875 0.40703125 3.1859375 0.1015625 3.796875 C-1.265625 6.53125 -2.6328125 9.265625 -4 12 C-4.66 12 -5.32 12 -6 12 C-5.43958106 7.23643901 -3.41302403 3.41302403 0 0 Z " fill="#121212" transform="translate(136,51)"/>
<path d="M0 0 C0.99 1.1446875 0.99 1.1446875 2 2.3125 C1.67 3.3025 1.34 4.2925 1 5.3125 C0.566875 4.673125 0.13375 4.03375 -0.3125 3.375 C-1.91239177 1.04503997 -1.91239177 1.04503997 -5 0.3125 C-5 -0.3475 -5 -1.0075 -5 -1.6875 C-9.9600338 -2.63038183 -14.84514574 -2.98998211 -19.875 -3.25 C-20.65875 -3.29318359 -21.4425 -3.33636719 -22.25 -3.38085938 C-24.16650649 -3.48603351 -26.08323333 -3.58717925 -28 -3.6875 C-28 -4.0175 -28 -4.3475 -28 -4.6875 C-6.92271124 -6.67547155 -6.92271124 -6.67547155 0 0 Z " fill="#171717" transform="translate(624,350.6875)"/>
<path d="M0 0 C6.29883173 1.93810207 6.29883173 1.93810207 8.21484375 4.83984375 C8.86420041 6.24026353 9.48931098 7.65217796 10.08984375 9.07421875 C10.97558274 11.22845105 10.97558274 11.22845105 13.25 13.25 C13.8275 13.8275 14.405 14.405 15 15 C15 16.32 15 17.64 15 19 C14.34 19 13.68 19 13 19 C12.401875 17.906875 11.80375 16.81375 11.1875 15.6875 C10.01927675 13.62762932 9.05510439 12.05510439 7.375 10.375 C6 9 6 9 5.125 6.4375 C4.1952172 3.7559785 4.1952172 3.7559785 1.375 2.6875 C0.59125 2.460625 -0.1925 2.23375 -1 2 C-0.67 1.34 -0.34 0.68 0 0 Z " fill="#0C0C0C" transform="translate(393,230)"/>
<path d="M0 0 C0.66 0.33 1.32 0.66 2 1 C1.278125 1.70125 0.55625 2.4025 -0.1875 3.125 C-2.09156386 5.01836687 -3.73179136 6.90066629 -5.4375 9 C-8.10289316 12.12046029 -10.79197389 14.46342121 -14 17 C-14 12.08113186 -10.31173311 9.3948461 -7 6 C-4.72300284 3.91201998 -2.39497582 1.9550823 0 0 Z " fill="#161616" transform="translate(175,0)"/>
<path d="M0 0 C3 0 3 0 4.6875 1.5 C7.13399881 6.15999773 6.38834149 10.64080479 5 15.5 C4.505 16.7375 4.505 16.7375 4 18 C3.34 18 2.68 18 2 18 C2.03480469 16.55367187 2.03480469 16.55367187 2.0703125 15.078125 C2.08835938 13.81484375 2.10640625 12.5515625 2.125 11.25 C2.14820313 9.99703125 2.17140625 8.7440625 2.1953125 7.453125 C2.01537302 4.27179508 1.68998582 2.63478104 0 0 Z " fill="#242424" transform="translate(212,26)"/>
<path d="M0 0 C0.33 0.99 0.66 1.98 1 3 C-0.11375 2.979375 -1.2275 2.95875 -2.375 2.9375 C-5.83215921 2.73619282 -5.83215921 2.73619282 -8 4 C-10.05859375 4.16796875 -10.05859375 4.16796875 -12.4375 4.1875 C-13.61119141 4.20876953 -13.61119141 4.20876953 -14.80859375 4.23046875 C-17 4 -17 4 -20 2 C-19 1 -19 1 -16.8203125 0.9375 C-15.02864303 0.97904596 -13.23697634 1.02071192 -11.4453125 1.0625 C-7.51815467 0.96212536 -4.05187502 -0.09004167 0 0 Z " fill="#151515" transform="translate(328,420)"/>
<path d="M0 0 C-0.33 0.66 -0.66 1.32 -1 2 C-3.91517292 0.92598892 -5.77810176 0.22189824 -8 -2 C-11.36423199 -2.02106594 -11.36423199 -2.02106594 -15.125 -1.625 C-16.40632813 -1.51414063 -17.68765625 -1.40328125 -19.0078125 -1.2890625 C-19.99523437 -1.19367188 -20.98265625 -1.09828125 -22 -1 C-21.34 -1.33 -20.68 -1.66 -20 -2 C-20 -2.66 -20 -3.32 -20 -4 C-11.80845639 -5.27110159 -6.93008016 -5.11505916 0 0 Z " fill="#121212" transform="translate(392,229)"/>
<path d="M0 0 C0 0.66 0 1.32 0 2 C-9.405 5.96 -9.405 5.96 -19 10 C-19 9.01 -19 8.02 -19 7 C-16.39869373 5.8265684 -13.79431492 4.66107492 -11.1875 3.5 C-10.44951172 3.16613281 -9.71152344 2.83226562 -8.95117188 2.48828125 C-8.23896484 2.17246094 -7.52675781 1.85664063 -6.79296875 1.53125 C-6.1383667 1.23798828 -5.48376465 0.94472656 -4.80932617 0.64257812 C-3 0 -3 0 0 0 Z " fill="#0F0F0F" transform="translate(607,368)"/>
<path d="M0 0 C5.87393604 2.55202561 10.24903794 4.87273228 12.875 11.0625 C13.03498318 13.54223929 12.15701064 14.84293753 11 17 C10.84144531 16.39671875 10.68289063 15.7934375 10.51953125 15.171875 C9.00971291 10.00012156 7.86300134 6.82732636 3 4 C-0.17921787 2.74443113 -0.17921787 2.74443113 -3 2 C-2.01 1.34 -1.02 0.68 0 0 Z " fill="#1C1C1C" transform="translate(477,232)"/>
<path d="M0 0 C0.33 0.66 0.66 1.32 1 2 C-2.75 7.875 -2.75 7.875 -5 9 C-7.2072923 9.07092842 -9.41667452 9.08415025 -11.625 9.0625 C-12.81351563 9.05347656 -14.00203125 9.04445312 -15.2265625 9.03515625 C-16.14179688 9.02355469 -17.05703125 9.01195312 -18 9 C-17.67 8.34 -17.34 7.68 -17 7 C-15.27557943 6.84724043 -13.54344657 6.77803152 -11.8125 6.75 C-7.56995635 6.46826859 -5.31039431 6.01466555 -2.3125 2.9375 C-1.549375 1.968125 -0.78625 0.99875 0 0 Z " fill="#151515" transform="translate(48,167)"/>
<path d="M0 0 C0 0.66 0 1.32 0 2 C0.66 2.33 1.32 2.66 2 3 C0.1128125 2.9071875 0.1128125 2.9071875 -1.8125 2.8125 C-5.13343838 2.7399651 -5.13343838 2.7399651 -7.875 4.5 C-8.24625 4.995 -8.6175 5.49 -9 6 C-9.66 6 -10.32 6 -11 6 C-11.33 6.99 -11.66 7.98 -12 9 C-12.66 8.34 -13.32 7.68 -14 7 C-13.04578192 5.85073734 -12.08647955 4.70569459 -11.125 3.5625 C-10.59132812 2.92441406 -10.05765625 2.28632812 -9.5078125 1.62890625 C-6.42151529 -1.7052542 -4.21171966 -0.82403211 0 0 Z " fill="#171717" transform="translate(250,116)"/>
<path d="M0 0 C0.66 0.66 1.32 1.32 2 2 C4.65537372 2.56520003 7.29144713 2.73788198 10 3 C10 3.99 10 4.98 10 6 C8.5199159 5.88637738 7.04089926 5.75877092 5.5625 5.625 C4.73878906 5.55539062 3.91507813 5.48578125 3.06640625 5.4140625 C2.38449219 5.27742188 1.70257813 5.14078125 1 5 C0.67 4.34 0.34 3.68 0 3 C-2.58605332 2.5316735 -2.58605332 2.5316735 -5.5625 2.375 C-7.08037109 2.26285156 -7.08037109 2.26285156 -8.62890625 2.1484375 C-9.80259766 2.07496094 -9.80259766 2.07496094 -11 2 C-11 1.67 -11 1.34 -11 1 C-3.36565097 -1.49584488 -3.36565097 -1.49584488 0 0 Z " fill="#121212" transform="translate(153,309)"/>
<path d="M0 0 C0.99 0.33 1.98 0.66 3 1 C1.89718873 2.27200971 0.79269231 3.54255853 -0.3125 4.8125 C-0.92738281 5.52019531 -1.54226562 6.22789063 -2.17578125 6.95703125 C-5.44911047 10.6228796 -5.44911047 10.6228796 -7 12 C-7.66 12 -8.32 12 -9 12 C-8.45015228 8.12488273 -6.72444669 6.40423494 -3.9375 3.75 C-3.20402344 3.04359375 -2.47054687 2.3371875 -1.71484375 1.609375 C-1.14894531 1.07828125 -0.58304688 0.5471875 0 0 Z " fill="#171717" transform="translate(95,113)"/>
<path d="M0 0 C0.66 0.66 1.32 1.32 2 2 C0.72954304 3.75027325 -0.54138106 5.50020744 -1.8125 7.25 C-2.52019531 8.22453125 -3.22789062 9.1990625 -3.95703125 10.203125 C-4.63121094 11.12609375 -5.30539062 12.0490625 -6 13 C-6.54011719 13.77859375 -7.08023438 14.5571875 -7.63671875 15.359375 C-8.31154297 16.17148437 -8.31154297 16.17148437 -9 17 C-9.66 17 -10.32 17 -11 17 C-9.24933204 13.11390189 -6.81675994 9.72187742 -4.375 6.25 C-3.95476563 5.64800781 -3.53453125 5.04601562 -3.1015625 4.42578125 C-2.07006863 2.94886957 -1.03535421 1.47420806 0 0 Z " fill="#141414" transform="translate(522,413)"/>
<path d="M0 0 C0.66 0.33 1.32 0.66 2 1 C4.82823491 1.03055192 7.64205732 0.93282706 10.46875 0.83984375 C13 1 13 1 15 3 C6.57142857 5.28571429 6.57142857 5.28571429 2 5 C1.67 4.34 1.34 3.68 1 3 C0.01 2.34 -0.98 1.68 -2 1 C-1.34 0.67 -0.68 0.34 0 0 Z " fill="#252525" transform="translate(236,385)"/>
<path d="M0 0 C6.95660771 0.57021375 13.31427305 2.01302694 20 4 C20 4.66 20 5.32 20 6 C12.74601342 5.52432875 6.73187777 3.70533406 0 1 C0 0.67 0 0.34 0 0 Z " fill="#0D0D0D" transform="translate(285,161)"/>
<path d="M0 0 C5.44520597 0.43561648 8.7160481 1.59231099 13 5 C14.875 7.25 14.875 7.25 16 9 C15.01 9 14.02 9 13 9 C12.67 8.01 12.34 7.02 12 6 C9.20827761 4.96683512 9.20827761 4.96683512 5.9375 4.3125 C4.83277344 4.06113281 3.72804688 3.80976563 2.58984375 3.55078125 C1.73519531 3.36902344 0.88054688 3.18726563 0 3 C0 2.01 0 1.02 0 0 Z " fill="#141414" transform="translate(516,277)"/>
<path d="M0 0 C4.21372787 0.552248 6.7688567 1.94980344 10.1875 4.4375 C11.04730469 5.05496094 11.90710938 5.67242187 12.79296875 6.30859375 C15 8 15 8 17 10 C12.1918877 10 9.97682423 8.26137601 6.25 5.5625 C5.64800781 5.14162109 5.04601562 4.72074219 4.42578125 4.28710938 C2.9264141 3.22463265 1.45993154 2.11604593 0 1 C0 0.67 0 0.34 0 0 Z " fill="#1A1A1A" transform="translate(455,221)"/>
<path d="M0 0 C2.61929172 0.38067797 3.79191633 0.78704318 5.66796875 2.70703125 C6.16941406 3.40183594 6.67085938 4.09664062 7.1875 4.8125 C7.69667969 5.49957031 8.20585937 6.18664062 8.73046875 6.89453125 C10.0010663 9.00176842 10.73844522 10.55369353 11 13 C10.34 13.66 9.68 14.32 9 15 C8.76925781 14.40832031 8.53851563 13.81664062 8.30078125 13.20703125 C6.17679195 8.06076469 4.15479427 4.69315047 0 1 C0 0.67 0 0.34 0 0 Z " fill="#171717" transform="translate(351,197)"/>
<path d="M0 0 C0.33 0.99 0.66 1.98 1 3 C0.3503125 3.99 0.3503125 3.99 -0.3125 5 C-2.79028086 9.40494375 -3.26225453 14.04408633 -4 19 C-6.08168944 15.65220841 -6.1006308 13.74809609 -5.25 9.9375 C-4.97929688 8.65166016 -4.97929688 8.65166016 -4.703125 7.33984375 C-4 5 -4 5 -2 2 C-1.34 2 -0.68 2 0 2 C0 1.34 0 0.68 0 0 Z " fill="#111111" transform="translate(7,196)"/>
<path d="M0 0 C3.85865969 1.45936488 5.00320762 3.26600121 6.75 6.9375 C7.17796875 7.81277344 7.6059375 8.68804687 8.046875 9.58984375 C9 12 9 12 9 15 C5.66488612 12.0098979 3.78478881 9.10501426 2 5 C2 4.34 2 3.68 2 3 C1.34 2.67 0.68 2.34 0 2 C0 1.34 0 0.68 0 0 Z " fill="#1E1E1E" transform="translate(328,165)"/>
<path d="M0 0 C0.2475 0.556875 0.495 1.11375 0.75 1.6875 C1.93537862 4.14377819 1.93537862 4.14377819 4.1875 6.1875 C6.79699202 10.23671176 5.9155743 13.43208041 5 18 C3 15 3 15 2.5 11.4375 C2.34152243 7.9428808 2.34152243 7.9428808 0 6 C-0.125 2.875 -0.125 2.875 0 0 Z " fill="#1B1B1B" transform="translate(132,284)"/>
<path d="M0 0 C2.5 1.625 2.5 1.625 5 4 C5.3125 7.25 5.3125 7.25 5 10 C4.01 9.67 3.02 9.34 2 9 C1.67 7.35 1.34 5.7 1 4 C-2.3 3.67 -5.6 3.34 -9 3 C-9 2.67 -9 2.34 -9 2 C-6.03 2 -3.06 2 0 2 C0 1.34 0 0.68 0 0 Z " fill="#3B3B3B" transform="translate(46,242)"/>
<path d="M0 0 C0.66 0.33 1.32 0.66 2 1 C2.08090971 2.62418745 2.13914995 4.24951745 2.1875 5.875 C2.22230469 6.77992188 2.25710938 7.68484375 2.29296875 8.6171875 C2.19628906 9.40351563 2.09960938 10.18984375 2 11 C1.01 11.66 0.02 12.32 -1 13 C-2.24270671 10.51458657 -1.95365685 9.23584621 -1.625 6.5 C-1.53476562 5.7059375 -1.44453125 4.911875 -1.3515625 4.09375 C-1 2 -1 2 0 0 Z " fill="#232323" transform="translate(427,227)"/>
<path d="M0 0 C0.33 0 0.66 0 1 0 C1.40592504 3.37275956 1.27513307 4.64079849 -0.828125 7.38671875 C-1.62734375 8.14597656 -2.4265625 8.90523437 -3.25 9.6875 C-4.43335937 10.83798828 -4.43335937 10.83798828 -5.640625 12.01171875 C-7.72242094 13.7660799 -9.5141885 14.93383773 -12 16 C-12 15.01 -12 14.02 -12 13 C-10.5806664 12.12136491 -9.15976639 11.24514409 -7.73046875 10.3828125 C-4.8289786 8.06424023 -3.12590042 4.96340751 -1.19921875 1.828125 C-0.80347656 1.22484375 -0.40773438 0.6215625 0 0 Z " fill="#181818" transform="translate(127,71)"/>
<path d="M0 0 C4.75 0.875 4.75 0.875 7 2 C8.3734635 2.15004973 9.7528526 2.24838006 11.1328125 2.31640625 C11.93847656 2.35830078 12.74414062 2.40019531 13.57421875 2.44335938 C14.41597656 2.48267578 15.25773438 2.52199219 16.125 2.5625 C17.39923828 2.62727539 17.39923828 2.62727539 18.69921875 2.69335938 C20.79928223 2.79954236 22.89961948 2.90028497 25 3 C25 3.33 25 3.66 25 4 C21.95863909 4.27703486 18.92011927 4.5222858 15.875 4.75 C15.0190625 4.83121094 14.163125 4.91242188 13.28125 4.99609375 C9.0612416 5.28824818 6.01202491 5.43785982 2.3828125 3.078125 C1.59648438 2.39234375 0.81015625 1.7065625 0 1 C0 0.67 0 0.34 0 0 Z " fill="#080808" transform="translate(588,342)"/>
<path d="M0 0 C2.14653291 2.09527242 4.12747273 4.27115057 6.0625 6.5625 C7.6615185 8.45446846 9.2466002 10.2466002 11 12 C10.01 12.495 10.01 12.495 9 13 C1.31509847 7.08315098 1.31509847 7.08315098 0 2.5625 C0 1.716875 0 0.87125 0 0 Z " fill="#1E1E1E" transform="translate(216,127)"/>
<path d="M0 0 C1.58294782 -0.05437607 3.16644256 -0.09296271 4.75 -0.125 C5.63171875 -0.14820313 6.5134375 -0.17140625 7.421875 -0.1953125 C10.1135858 0.00860498 11.69904974 0.63448279 14 2 C14 2.66 14 3.32 14 4 C6.575 3.01 6.575 3.01 -1 2 C-0.67 1.34 -0.34 0.68 0 0 Z " fill="#121212" transform="translate(8,230)"/>
<path d="M0 0 C0.33 0 0.66 0 1 0 C1.62925559 5.03404473 1.10379244 7.35011137 -2 11.4375 C-2.98419741 12.63812971 -3.97919926 13.83033248 -5 15 C-5.66 14.34 -6.32 13.68 -7 13 C-6.401875 12.34 -5.80375 11.68 -5.1875 11 C-2.57574169 7.41816003 -1.41905856 4.18622274 0 0 Z " fill="#1A1A1A" transform="translate(223,97)"/>
<path d="M0 0 C0.79921875 0.11085938 1.5984375 0.22171875 2.421875 0.3359375 C3.32679688 0.47902344 3.32679688 0.47902344 4.25 0.625 C4.58 1.945 4.91 3.265 5.25 4.625 C3.455625 4.1609375 3.455625 4.1609375 1.625 3.6875 C-1.81402439 2.82468427 -5.24136573 2.15129514 -8.75 1.625 C-5.5750906 -0.2828584 -3.64414789 -0.5359041 0 0 Z " fill="#222222" transform="translate(193.75,345.375)"/>
<path d="M0 0 C0.33 0 0.66 0 1 0 C1.50757862 1.41396902 2.00574925 2.83131729 2.5 4.25 C2.7784375 5.03890625 3.056875 5.8278125 3.34375 6.640625 C4 9 4 9 4 13 C4.66 13.33 5.32 13.66 6 14 C5.01 14.33 4.02 14.66 3 15 C0.31780178 9.63560356 -0.3152595 5.98993047 0 0 Z " fill="#212121" transform="translate(202,365)"/>
<path d="M0 0 C3.26008643 3.16952847 6.22237877 6.39937989 9 10 C6 10 6 10 4.39453125 8.57421875 C3.61142578 7.64029297 3.61142578 7.64029297 2.8125 6.6875 C2.01779297 5.76517578 2.01779297 5.76517578 1.20703125 4.82421875 C0 3 0 3 0 0 Z " fill="#141414" transform="translate(341,184)"/>
<path d="M0 0 C2.81872737 0.38878998 3.77195598 0.70810365 5.5625 3 C6.036875 3.66 6.51125 4.32 7 5 C7.99 5.33 8.98 5.66 10 6 C10 6.66 10 7.32 10 8 C7.31199188 7.84639954 5.54172723 7.51244468 3.5546875 5.6328125 C0 1.3875 0 1.3875 0 0 Z " fill="#161616" transform="translate(505,271)"/>
<path d="M0 0 C0 0.99 0 1.98 0 3 C-0.99 3.33 -1.98 3.66 -3 4 C-4.39712274 5.95597184 -5.73779907 7.95436401 -7 10 C-7.66 9.34 -8.32 8.68 -9 8 C-3.95652174 0 -3.95652174 0 0 0 Z " fill="#1D1D1D" transform="translate(22,172)"/>
<path d="M0 0 C0.99 0.33 1.98 0.66 3 1 C-0.87564767 4.61139896 -0.87564767 4.61139896 -3 6 C-5.375 5.8125 -5.375 5.8125 -7 5 C-7 4.34 -7 3.68 -7 3 C-5.5459375 2.5359375 -5.5459375 2.5359375 -4.0625 2.0625 C-1.15934208 1.30476658 -1.15934208 1.30476658 0 0 Z " fill="#222222" transform="translate(407,442)"/>
<path d="M0 0 C0.33 0 0.66 0 1 0 C1.05383848 2.45862401 1.09359038 4.9160755 1.125 7.375 C1.14175781 8.07367188 1.15851563 8.77234375 1.17578125 9.4921875 C1.19344267 11.32897486 1.10303261 13.16601963 1 15 C0.34 15.66 -0.32 16.32 -1 17 C-3.125 16.625 -3.125 16.625 -5 16 C-4.03320312 15.46439453 -4.03320312 15.46439453 -3.046875 14.91796875 C-0.15789794 12.21093109 -0.40394183 10.19953121 -0.25 6.3125 C-0.19328125 5.13300781 -0.1365625 3.95351563 -0.078125 2.73828125 C-0.05234375 1.83464844 -0.0265625 0.93101562 0 0 Z " fill="#1A1A1A" transform="translate(509,432)"/>
<path d="M0 0 C4.37934119 0.51958285 8.68803391 1.05675742 13 2 C13 2.66 13 3.32 13 4 C3.40546697 3.40546697 3.40546697 3.40546697 0 0 Z " fill="#0F0F0F" transform="translate(176,342)"/>
<path d="M0 0 C1.32 0.66 2.64 1.32 4 2 C2.6078125 2.680625 2.6078125 2.680625 1.1875 3.375 C-2.03921389 4.9421633 -2.03921389 4.9421633 -5 7 C-5 6.01 -5 5.02 -5 4 C-2.5 1.8125 -2.5 1.8125 0 0 Z " fill="#202020" transform="translate(485,441)"/>
<path d="M0 0 C5.445 1.485 5.445 1.485 11 3 C8 5 8 5 4.375 4.3125 C3.26125 3.879375 2.1475 3.44625 1 3 C0.67 2.01 0.34 1.02 0 0 Z " fill="#222222" transform="translate(293,416)"/>
<path d="M0 0 C0.7940625 -0.01675781 1.588125 -0.03351563 2.40625 -0.05078125 C3.0971875 0.06910156 3.788125 0.18898438 4.5 0.3125 C5.16 1.3025 5.82 2.2925 6.5 3.3125 C2.21 2.9825 -2.08 2.6525 -6.5 2.3125 C-4.07477793 -0.11272207 -3.3279321 0.01620746 0 0 Z " fill="#131313" transform="translate(273.5,402.6875)"/>
<path d="M0 0 C0.99 0.495 0.99 0.495 2 1 C4.38056989 8.64288227 4.38056989 8.64288227 3 13 C3 12.01 3 11.02 3 10 C2.34 10 1.68 10 1 10 C-0.1577506 6.52674819 -0.06866652 3.63932552 0 0 Z " fill="#111111" transform="translate(163,319)"/>
<path d="M0 0 C0.66 0.66 1.32 1.32 2 2 C0.92892883 2.86949317 -0.15745944 3.72014205 -1.25 4.5625 C-1.85328125 5.03816406 -2.4565625 5.51382812 -3.078125 6.00390625 C-5 7 -5 7 -9 6 C-6.03 4.02 -3.06 2.04 0 0 Z " fill="#111111" transform="translate(534,404)"/>
<path d="M0 0 C1.12588014 0.95729916 2.2506715 1.91587895 3.375 2.875 C4.00148438 3.40867187 4.62796875 3.94234375 5.2734375 4.4921875 C6.55836651 5.61432007 7.79371975 6.79371975 9 8 C5 8 5 8 2.25 5.6875 C0 3 0 3 0 0 Z " fill="#1D1D1D" transform="translate(283,408)"/>
<path d="M0 0 C0.598125 0.639375 1.19625 1.27875 1.8125 1.9375 C3.90810337 4.20310389 3.90810337 4.20310389 7 5 C7.33 5.99 7.66 6.98 8 8 C4.21616321 7.07506212 2.43306306 6.60628829 0.125 3.375 C-0.24625 2.59125 -0.6175 1.8075 -1 1 C-0.67 0.67 -0.34 0.34 0 0 Z " fill="#191919" transform="translate(340,431)"/>
<path d="M0 0 C0.66 0.66 1.32 1.32 2 2 C1.04882866 3.1725131 0.08882991 4.33787015 -0.875 5.5 C-1.40867187 6.1496875 -1.94234375 6.799375 -2.4921875 7.46875 C-2.98976563 7.9740625 -3.48734375 8.479375 -4 9 C-4.66 9 -5.32 9 -6 9 C-4.68775452 5.06326356 -3.08089673 2.77280706 0 0 Z " fill="#222222" transform="translate(579,381)"/>
<path d="M0 0 C2.46800047 1.15173355 4.04783565 2.04783565 6 4 C6.26991906 6.68839385 6.08737357 9.29141936 6 12 C5.67 12 5.34 12 5 12 C4.731875 10.906875 4.46375 9.81375 4.1875 8.6875 C3.08641352 5.26833673 2.57525074 4.22408019 0 2 C0 1.34 0 0.68 0 0 Z " fill="#101010" transform="translate(496,256)"/>
<path d="M0 0 C0.33 0 0.66 0 1 0 C1.268125 0.9075 1.53625 1.815 1.8125 2.75 C2.89576294 5.71471963 3.98359457 7.6169754 6 10 C3 10 3 10 0.75 8.375 C-1 6 -1 6 -0.75 2.75 C-0.5025 1.8425 -0.255 0.935 0 0 Z " fill="#2A2A2A" transform="translate(363,215)"/>
<path d="M0 0 C0.95465783 2.16967689 1.14401212 3.56328793 0.3984375 5.82421875 C-0.35870385 7.5684743 -1.17609198 9.28627131 -2 11 C-2.66 10.67 -3.32 10.34 -4 10 C-3.29445932 6.33118845 -1.72264494 3.29549466 0 0 Z " fill="#1D1D1D" transform="translate(11,183)"/>
<path d="M0 0 C2.83022097 3.99560608 1.76210446 7.42737323 1 12 C-1.42520546 9.57479454 -1.68564441 8.37932259 -2 5 C-1.0625 2.1875 -1.0625 2.1875 0 0 Z " fill="#171717" transform="translate(261,140)"/>
<path d="M0 0 C2.75 -0.25 2.75 -0.25 6 0 C8.375 2 8.375 2 10 4 C9.01 4.33 8.02 4.66 7 5 C6.67 4.01 6.34 3.02 6 2 C3.69 2 1.38 2 -1 2 C-0.67 1.34 -0.34 0.68 0 0 Z " fill="#1C1C1C" transform="translate(258,399)"/>
<path d="M0 0 C2.31 0.33 4.62 0.66 7 1 C6.67 1.99 6.34 2.98 6 4 C3.69 3.34 1.38 2.68 -1 2 C-0.67 1.34 -0.34 0.68 0 0 Z " fill="#282828" transform="translate(60,261)"/>
<path d="M0 0 C0.66 1.32 1.32 2.64 2 4 C-0.97 6.475 -0.97 6.475 -4 9 C-4.33 8.34 -4.66 7.68 -5 7 C-5.99 6.67 -6.98 6.34 -8 6 C-5.69 5.34 -3.38 4.68 -1 4 C-0.67 2.68 -0.34 1.36 0 0 Z " fill="#2D2D2D" transform="translate(237,133)"/>
<path d="M0 0 C0.33 0.99 0.66 1.98 1 3 C-1.97 5.475 -1.97 5.475 -5 8 C-5.66 7.34 -6.32 6.68 -7 6 C-4.69 4.02 -2.38 2.04 0 0 Z " fill="#181818" transform="translate(56,160)"/>
<path d="M0 0 C0.33 0.99 0.66 1.98 1 3 C-0.4375 5.6875 -0.4375 5.6875 -2 8 C-3.32 7.67 -4.64 7.34 -6 7 C-4.02 4.69 -2.04 2.38 0 0 Z " fill="#1C1C1C" transform="translate(69,145)"/>
<path d="M0 0 C2.88575819 0.39803561 3.82189513 0.79009069 5.75 3.0625 C6.1625 3.701875 6.575 4.34125 7 5 C6.01 6.485 6.01 6.485 5 8 C4.731875 7.38125 4.46375 6.7625 4.1875 6.125 C3.04443152 3.7004767 3.04443152 3.7004767 0 2 C0 1.34 0 0.68 0 0 Z " fill="#212121" transform="translate(253,117)"/>
<path d="M0 0 C0.33 0 0.66 0 1 0 C1.103125 1.258125 1.20625 2.51625 1.3125 3.8125 C1.64858808 6.60499657 1.80025876 7.74433121 3.5625 10 C4.036875 10.33 4.51125 10.66 5 11 C4.01 11.495 4.01 11.495 3 12 C0.9375 10.5 0.9375 10.5 -1 8 C-1.05928384 5.17593353 -0.55954815 2.79774073 0 0 Z " fill="#444444" transform="translate(550,302)"/>
<path d="M0 0 C3.465 1.485 3.465 1.485 7 3 C7 3.99 7 4.98 7 6 C4.36 4.68 1.72 3.36 -1 2 C-0.67 1.34 -0.34 0.68 0 0 Z " fill="#202020" transform="translate(393,230)"/>
<path d="M0 0 C1.125 1.5 1.125 1.5 2 4 C1.57598348 6.7773082 0.81108065 9.29639783 0 12 C-1.125 10.5 -1.125 10.5 -2 8 C-1.57598348 5.2226918 -0.81108065 2.70360217 0 0 Z " fill="#0D0D0D" transform="translate(210,56)"/>
<path d="M0 0 C3.36720387 1.39332574 4.9859524 2.9789286 7 6 C4 6 4 6 1.8125 4.125 C0 2 0 2 0 0 Z " fill="#181818" transform="translate(451,445)"/>
<path d="M0 0 C6.75 0.75 6.75 0.75 9 3 C6.03 3 3.06 3 0 3 C0 2.01 0 1.02 0 0 Z " fill="#222222" transform="translate(516,277)"/>
<path d="M0 0 C0.66 0 1.32 0 2 0 C2.66 1.32 3.32 2.64 4 4 C2.35 5.32 0.7 6.64 -1 8 C-0.67 5.36 -0.34 2.72 0 0 Z " fill="#0F0F0F" transform="translate(162,36)"/>
<path d="M0 0 C0.99 0 1.98 0 3 0 C3 0.66 3 1.32 3 2 C4.32 2.66 5.64 3.32 7 4 C7 4.99 7 5.98 7 7 C5.83040013 6.02433888 4.66438823 5.044375 3.5 4.0625 C2.8503125 3.51722656 2.200625 2.97195312 1.53125 2.41015625 C1.0259375 1.94480469 0.520625 1.47945312 0 1 C0 0.67 0 0.34 0 0 Z " fill="#191919" transform="translate(155,30)"/>
<path d="M0 0 C3.625 0.375 3.625 0.375 7 1 C4 3 4 3 0.8125 2.625 C-0.115625 2.41875 -1.04375 2.2125 -2 2 C-1.34 1.34 -0.68 0.68 0 0 Z " fill="#161616" transform="translate(244,386)"/>
<path d="M0 0 C2.9719385 1.12451727 5.33440687 2.22293791 8 4 C6.25 4.6875 6.25 4.6875 4 5 C1.75 3.6875 1.75 3.6875 0 2 C0 1.34 0 0.68 0 0 Z " fill="#141414" transform="translate(99,274)"/>
<path d="M0 0 C1.77706209 2.66559313 2.87548273 5.0280615 4 8 C3.01 8 2.02 8 1 8 C0.26919734 6.02253397 -0.39421747 4.01927511 -1 2 C-0.67 1.34 -0.34 0.68 0 0 Z " fill="#212121" transform="translate(206,14)"/>
</svg>
